<?xml version="1.0" encoding="UTF-8" standalone="no"?>
<!-- Created with Inkscape (http://www.inkscape.org/) -->

<svg
   xmlns:dc="http://purl.org/dc/elements/1.1/"
   xmlns:cc="http://creativecommons.org/ns#"
   xmlns:rdf="http://www.w3.org/1999/02/22-rdf-syntax-ns#"
   xmlns:svg="http://www.w3.org/2000/svg"
   xmlns="http://www.w3.org/2000/svg"
   xmlns:sodipodi="http://sodipodi.sourceforge.net/DTD/sodipodi-0.dtd"
   xmlns:inkscape="http://www.inkscape.org/namespaces/inkscape"
   width="744.09448819"
   height="1052.3622047"
   id="svg2"
   version="1.1"
   inkscape:version="0.48.4 r9939"
   sodipodi:docname="BrahmanSubstringLogoBW_small1.svg">
  <defs
     id="defs4" />
  <sodipodi:namedview
     id="base"
     pagecolor="#ffffff"
     bordercolor="#666666"
     borderopacity="1.0"
     inkscape:pageopacity="0.0"
     inkscape:pageshadow="2"
     inkscape:zoom="0.7"
     inkscape:cx="420.28415"
     inkscape:cy="869.06656"
     inkscape:document-units="px"
     inkscape:current-layer="g3366"
     showgrid="true"
     inkscape:snap-bbox="false"
     inkscape:bbox-nodes="true"
     inkscape:snap-bbox-edge-midpoints="true"
     inkscape:bbox-paths="true"
     inkscape:window-width="1600"
     inkscape:window-height="877"
     inkscape:window-x="-8"
     inkscape:window-y="-8"
     inkscape:window-maximized="1"
     inkscape:snap-nodes="true"
     inkscape:snap-global="false"
     inkscape:object-nodes="true"
     showguides="false"
     inkscape:guide-bbox="true"
     inkscape:snap-grids="false"
     inkscape:snap-to-guides="false">
    <sodipodi:guide
       orientation="0,1"
       position="321.42857,1081.2143"
       id="guide3017" />
    <inkscape:grid
       type="xygrid"
       id="grid3052" />
  </sodipodi:namedview>
  <metadata
     id="metadata7">
    <rdf:RDF>
      <cc:Work
         rdf:about="">
        <dc:format>image/svg+xml</dc:format>
        <dc:type
           rdf:resource="http://purl.org/dc/dcmitype/StillImage" />
        <dc:title></dc:title>
      </cc:Work>
    </rdf:RDF>
  </metadata>
  <g
     inkscape:label="Layer 1"
     inkscape:groupmode="layer"
     id="layer1">
    <text
       xml:space="preserve"
       style="font-size:72px;font-style:normal;font-weight:normal;line-height:125%;letter-spacing:0px;word-spacing:0px;fill:#000000;fill-opacity:1;stroke:none;font-family:Sans"
       x="112.78323"
       y="214.78015"
       id="text3158"
       sodipodi:linespacing="125%"
       transform="matrix(1,0,-0.47855086,1,0,0)"><tspan
         sodipodi:role="line"
         id="tspan3160"
         x="112.78323"
         y="214.78015" /></text>
    <text
       xml:space="preserve"
       style="font-size:40px;font-style:normal;font-weight:normal;line-height:125%;letter-spacing:0px;word-spacing:0px;fill:#000000;fill-opacity:1;stroke:none;font-family:Sans"
       x="151.6218"
       y="255.21931"
       id="text3162"
       sodipodi:linespacing="125%"
       transform="matrix(1,0,-0.4989281,1,0,0)"><tspan
         sodipodi:role="line"
         id="tspan3164"
         x="151.6218"
         y="255.21931" /></text>
    <g
       id="g3366">
      <path
         style="fill:#666666"
         d=""
         id="path3600"
         inkscape:connector-curvature="0" />
      <path
         style="fill:#666666"
         d=""
         id="path3604"
         inkscape:connector-curvature="0" />
      <path
         style="fill:#666666"
         d=""
         id="path3610"
         inkscape:connector-curvature="0" />
      <g
         id="g3047"
         transform="matrix(0.5,0,0,0.5,63.023813,-38.104614)">
        <g
           transform="matrix(1,0,-0.33333332,1,184.12073,0)"
           id="g3394">
          <path
             sodipodi:nodetypes="ccccc"
             inkscape:connector-curvature="0"
             id="path2985"
             d="m 90,962.36218 240,0 0,-240 -240,0 z"
             style="fill:none;stroke:#000000;stroke-width:1px;stroke-linecap:butt;stroke-linejoin:miter;stroke-opacity:1" />
          <path
             sodipodi:nodetypes="ccccccccccccccccccc"
             inkscape:connector-curvature="0"
             id="path2997"
             d="m 850,722.36218 -200,0 0,280.00002 m -280,-280.00002 0,240 240.5,-0.5 -0.5,-239.5 z m 0,-600 0,280 240,0 0,-240 -240,0 -220,220 m 740,20 0,-240 -240,0 0,240 z"
             style="fill:none;stroke:#000000;stroke-width:1px;stroke-linecap:butt;stroke-linejoin:miter;stroke-opacity:1" />
          <path
             sodipodi:nodetypes="ccccc"
             inkscape:connector-curvature="0"
             id="path2999"
             d="m 110,722.36218 0,220 220,0 m -220,-280 0,-220"
             style="fill:none;stroke:#000000;stroke-width:1px;stroke-linecap:butt;stroke-linejoin:miter;stroke-opacity:1" />
          <g
             transform="translate(-9.5,499.5)"
             id="g3042">
            <path
               style="fill:none;stroke:#000000;stroke-width:1px;stroke-linecap:butt;stroke-linejoin:miter;stroke-opacity:1"
               d="m 339.5,162.86218 -220,0 -20,20 240,0 0,-239.999997 -240,-3e-6 0,240"
               id="path3005"
               inkscape:connector-curvature="0"
               sodipodi:nodetypes="ccccccc" />
          </g>
          <path
             sodipodi:nodetypes="cccc"
             inkscape:connector-curvature="0"
             id="path3011"
             d="m 50,402.36218 300,-300 600,0 -20,20"
             style="fill:none;stroke:#000000;stroke-width:1px;stroke-linecap:butt;stroke-linejoin:miter;stroke-opacity:1" />
          <path
             sodipodi:nodetypes="ccc"
             inkscape:connector-curvature="0"
             d="m 390,722.36218 0,220 220,0"
             style="fill:none;stroke:#000000;stroke-width:1px;stroke-linecap:butt;stroke-linejoin:miter;stroke-opacity:1"
             id="path3064" />
          <path
             sodipodi:nodetypes="ccccccc"
             inkscape:connector-curvature="0"
             id="path3021"
             d="m 950,102.36218 0,600 -300,300.00002 -599.5,-0.5 -0.5,-599.50002 280,0 0,-200"
             style="fill:none;stroke:#000000;stroke-width:1px;stroke-linecap:butt;stroke-linejoin:miter;stroke-opacity:1" />
          <path
             sodipodi:nodetypes="ccccccccccccccccc"
             inkscape:connector-curvature="0"
             id="path3025"
             d="m 670,722.36218 0,220 260,-260 m -40,0 0,-240 -240,0 0,240 280,0 0,-560 -560,0 -260,260 220,0 m 40,60 0,240 240,0 0,-240 z"
             style="fill:none;stroke:#000000;stroke-width:1px;stroke-linecap:butt;stroke-linejoin:miter;stroke-opacity:1" />
          <path
             sodipodi:nodetypes="cccccccccccccc"
             inkscape:connector-curvature="0"
             id="path3263"
             d="m 670,902.36218 220,-220 m 0,-20 -220,0 0,-220 m -60,220 -220,0 0,-220 m 0,-280 0,220 220,0 m 280,0 -220,0 0,-220"
             style="fill:none;stroke:#000000;stroke-width:1px;stroke-linecap:butt;stroke-linejoin:miter;stroke-opacity:1" />
          <path
             inkscape:connector-curvature="0"
             id="path3265"
             d="m 90,962.36218 20,-20"
             style="fill:none;stroke:#000000;stroke-width:1px;stroke-linecap:butt;stroke-linejoin:miter;stroke-opacity:1" />
          <path
             inkscape:connector-curvature="0"
             id="path3267"
             d="m 370,962.36218 20,-20"
             style="fill:none;stroke:#000000;stroke-width:1px;stroke-linecap:butt;stroke-linejoin:miter;stroke-opacity:1" />
          <path
             inkscape:connector-curvature="0"
             id="path3269"
             d="m 370,682.36218 20,-20"
             style="fill:none;stroke:#000000;stroke-width:1px;stroke-linecap:butt;stroke-linejoin:miter;stroke-opacity:1" />
          <path
             inkscape:connector-curvature="0"
             id="path3271"
             d="m 650,682.36218 20,-20"
             style="fill:none;stroke:#000000;stroke-width:1px;stroke-linecap:butt;stroke-linejoin:miter;stroke-opacity:1" />
          <path
             inkscape:connector-curvature="0"
             id="path3273"
             d="m 650,402.36218 20,-20"
             style="fill:none;stroke:#000000;stroke-width:1px;stroke-linecap:butt;stroke-linejoin:miter;stroke-opacity:1" />
          <path
             inkscape:connector-curvature="0"
             id="path3275"
             d="m 370,402.36218 20,-20"
             style="fill:none;stroke:#000000;stroke-width:1px;stroke-linecap:butt;stroke-linejoin:miter;stroke-opacity:1" />
          <text
             transform="scale(1.0291511,0.9716746)"
             sodipodi:linespacing="125%"
             id="text3285"
             y="956.31702"
             x="112.25851"
             style="font-size:264.15789795px;font-style:normal;font-weight:normal;line-height:125%;letter-spacing:0px;word-spacing:0px;fill:#000000;fill-opacity:1;stroke:none;font-family:Sans"
             xml:space="preserve"><tspan
               y="956.31702"
               x="112.25851"
               id="tspan3287"
               sodipodi:role="line">G</tspan></text>
          <text
             transform="scale(1.0291511,0.97167461)"
             sodipodi:linespacing="125%"
             id="text3285-5"
             y="668.15466"
             x="112.25852"
             style="font-size:264.15789795px;font-style:normal;font-weight:normal;line-height:125%;letter-spacing:0px;word-spacing:0px;fill:#000000;fill-opacity:1;stroke:none;font-family:Sans"
             xml:space="preserve"><tspan
               y="668.15466"
               x="112.25852"
               id="tspan3287-5"
               sodipodi:role="line">G</tspan></text>
          <text
             transform="scale(1.0291511,0.97167461)"
             sodipodi:linespacing="125%"
             id="text3285-1"
             y="668.15472"
             x="384.32742"
             style="font-size:264.15789795px;font-style:normal;font-weight:normal;line-height:125%;letter-spacing:0px;word-spacing:0px;fill:#000000;fill-opacity:1;stroke:none;font-family:Sans"
             xml:space="preserve"><tspan
               y="668.15472"
               x="384.32742"
               id="tspan3287-7"
               sodipodi:role="line">P</tspan></text>
          <text
             transform="scale(1.0291511,0.97167461)"
             sodipodi:linespacing="125%"
             id="text3285-11"
             y="379.99237"
             x="656.3963"
             style="font-size:264.15789795px;font-style:normal;font-weight:normal;line-height:125%;letter-spacing:0px;word-spacing:0px;fill:#000000;fill-opacity:1;stroke:none;font-family:Sans"
             xml:space="preserve"><tspan
               y="379.99237"
               x="656.3963"
               id="tspan3287-52"
               sodipodi:role="line">U</tspan></text>
          <text
             transform="scale(1.0291511,0.97167461)"
             sodipodi:linespacing="125%"
             id="text3285-1-1"
             y="379.9924"
             x="384.32742"
             style="font-size:264.15789795px;font-style:normal;font-weight:normal;line-height:125%;letter-spacing:0px;word-spacing:0px;fill:#000000;fill-opacity:1;stroke:none;font-family:Sans"
             xml:space="preserve"><tspan
               y="379.9924"
               x="384.32742"
               id="tspan3287-7-4"
               sodipodi:role="line">P</tspan></text>
        </g>
        <path
           inkscape:connector-curvature="0"
           id="path3578"
           d="m 302.4242,252.18063 199.04859,-149.28572 297.83642,0 297.83639,0 -12.3106,9.28572 -12.3106,9.28571 -280.05292,0 -280.05292,0 -173.80746,130.35714 -173.80746,130.35715 110.10659,0.36593 110.1066,0.36591 -3.01615,9.27694 -3.01616,9.27693 -137.80445,0 -137.80444,0 199.04857,-149.28571 z"
           style="fill:#000000" />
        <path
           inkscape:connector-curvature="0"
           id="path3582"
           d="m 543.85278,936.14606 c 0,-0.66176 2.41071,-8.37733 5.35714,-17.14572 l 5.35714,-15.94254 146.83915,-110.12498 146.83914,-110.12499 17.3339,0.40069 17.3339,0.40068 -167.74447,125.78487 c -92.25946,69.18167 -168.54805,126.27319 -169.53019,126.87002 -0.98214,0.59684 -1.78571,0.54372 -1.78571,-0.11803 z"
           style="fill:#000000" />
        <path
           inkscape:connector-curvature="0"
           id="path3584"
           d="m 611.77298,680.24731 c 0.75103,-0.67967 6.24417,-4.86201 12.20697,-9.29408 l 10.84146,-8.05832 108.08711,0 c 85.57636,0 108.06406,0.37191 107.9764,1.78572 -0.0609,0.98214 -1.24136,5 -2.62324,8.92857 l -2.5125,7.14286 -117.67086,0.36551 c -66.27828,0.20587 -117.07446,-0.17421 -116.30534,-0.87026 z"
           style="fill:#000000" />
        <path
           inkscape:connector-curvature="0"
           id="path3586"
           d="m 715.72769,392.18063 12.31062,-9.28572 108.49212,0 108.4921,0 -3.019,9.28572 -3.01901,9.28571 -117.78372,0 -117.78373,0 12.31062,-9.28571 z"
           style="fill:#000000" />
        <path
           inkscape:connector-curvature="0"
           id="path3588"
           d="m 435.72769,392.18063 12.31062,-9.28572 108.49211,0 108.49211,0 -3.019,9.28572 -3.01901,9.28571 -117.78373,0 -117.78372,0 12.31062,-9.28571 z"
           style="fill:#000000" />
        <path
           inkscape:connector-curvature="0"
           id="path3590"
           d="m 387.6745,681.82401 c 32.35195,-0.21405 85.70909,-0.21413 118.57143,-1.8e-4 32.86233,0.21395 6.39256,0.38909 -58.82173,0.38919 -65.21428,10e-5 -92.10165,-0.17495 -59.7497,-0.38901 z"
           style="fill:#000000" />
        <path
           inkscape:connector-curvature="0"
           id="path3592"
           d="m 331.77298,680.24731 c 0.75103,-0.67967 6.24417,-4.86201 12.20697,-9.29408 l 10.84146,-8.05832 108.08711,0 c 85.57636,0 108.06406,0.37191 107.9764,1.78572 -0.0609,0.98214 -1.24136,5 -2.62324,8.92857 l -2.5125,7.14286 -117.67086,0.36551 c -66.27828,0.20587 -117.07446,-0.17421 -116.30534,-0.87026 z"
           style="fill:#000000" />
        <path
           inkscape:connector-curvature="0"
           id="path3594"
           d="m 51.772983,680.24731 c 0.751029,-0.67967 6.244165,-4.86201 12.206967,-9.29408 l 10.84146,-8.05832 108.08711,0 c 85.57636,0 108.06406,0.37191 107.9764,1.78572 -0.0609,0.98214 -1.24136,5 -2.62324,8.92857 l -2.5125,7.14286 -117.67086,0.36551 c -66.27828,0.20587 -117.074462,-0.17421 -116.305337,-0.87026 z"
           style="fill:#000000" />
        <path
           inkscape:connector-curvature="0"
           id="path3596"
           d="m -41.075795,960.11366 c 0.746428,-0.74397 6.130831,-4.92254 11.96534,-9.28571 l 10.608198,-7.93304 108.473215,0 c 86.177672,0 108.337762,0.36704 107.814172,1.78572 -0.36248,0.98214 -1.76864,5.16071 -3.1248,9.28571 l -2.46574,7.5 -117.313767,0 c -73.8245055,0 -116.810656,-0.50145 -115.956618,-1.35268 z"
           style="fill:#000000" />
        <path
           inkscape:connector-curvature="0"
           id="path3598"
           d="m 238.9242,960.11366 c 0.74643,-0.74397 6.13084,-4.92254 11.96534,-9.28571 l 10.6082,-7.93304 108.32038,0 c 59.5762,0 108.32037,0.42564 108.32037,0.94587 0,0.52023 -1.0504,4.27812 -2.33421,8.35086 l -2.33422,7.40499 -28.73721,0.9311 c -45.39395,1.4708 -207.37277,1.14491 -205.80865,-0.41407 z"
           style="fill:#000000" />
        <path
           inkscape:connector-curvature="0"
           id="path3602"
           d="m 503.85278,996.11753 c 0,-0.58472 20.40819,-62.299 45.35153,-137.14286 l 45.35153,-136.07976 8.2199,0 c 4.52094,0 8.21989,0.48688 8.21989,1.08193 0,0.59507 -16.38064,50.21443 -36.40143,110.26525 -20.02079,60.05081 -36.15226,109.43247 -35.84771,109.73701 0.30454,0.30454 78.97263,-58.2646 174.81799,-130.15366 l 174.26427,-130.70737 93.3515,-280.06683 93.35155,-280.06682 10.6322,-7.88249 c 5.8478,-4.33538 10.8248,-7.69005 11.06,-7.45483 0.2352,0.23522 -44.0953,133.99475 -98.51218,297.24341 L 898.77195,701.70624 701.78808,849.44343 c -108.34113,81.25546 -197.19794,147.7372 -197.45959,147.7372 -0.26164,0 -0.47571,-0.4784 -0.47571,-1.0631 z"
           style="fill:#666666" />
        <path
           inkscape:connector-curvature="0"
           id="path3606"
           d="m 171.23539,380.7504 c 2.76159,-2.76159 337.6909,-253.25816 338.0892,-252.85987 0.27794,0.27794 -1.955,7.98077 -4.96209,17.1174 l -5.46741,16.61204 -146.57331,109.92319 -146.57331,109.92318 -17.61451,0 c -9.68799,0 -17.29234,-0.32217 -16.89857,-0.71594 z"
           style="fill:#666666" />
        <path
           inkscape:connector-curvature="0"
           id="path3608"
           d="m 330.11785,676.29049 c 0.47212,-1.47472 18.11072,-54.43129 39.19687,-117.68129 l 38.33847,-115 8.71924,-0.42285 8.71923,-0.42285 -36.46611,109.388 -36.46612,109.388 -11.44999,8.71613 c -7.45799,5.67728 -11.15071,7.78131 -10.59159,6.03486 l 0,0 z"
           style="fill:#666666" />
        <path
           inkscape:connector-curvature="0"
           id="path3612"
           d="m 610.11785,676.29049 c 0.47212,-1.47472 18.11072,-54.43129 39.19687,-117.68129 l 38.33848,-115 8.71923,-0.42285 8.71923,-0.42285 -36.46611,109.388 -36.46612,109.388 -11.44999,8.71613 c -7.45799,5.67728 -11.15071,7.78131 -10.59159,6.03486 l 0,0 z"
           style="fill:#666666" />
        <path
           inkscape:connector-curvature="0"
           id="path3614"
           d="m 703.85278,396.18024 c 0,-0.6283 17.4107,-53.37453 38.69046,-117.21384 l 38.69045,-116.07149 8.60524,0 c 6.28205,0 8.42795,0.4821 7.94855,1.78572 -0.36119,0.98214 -16.84305,50.32143 -36.62637,109.64285 l -35.96967,107.85715 -8.75884,6.42857 c -10.87526,7.98191 -12.57982,9.0078 -12.57982,7.57104 z"
           style="fill:#666666" />
        <path
           inkscape:connector-curvature="0"
           id="path3616"
           d="m 423.85278,396.18024 c 0,-0.6283 17.4107,-53.37453 38.69045,-117.21384 l 38.69046,-116.07149 8.60524,0 c 6.28205,0 8.42795,0.4821 7.94854,1.78572 -0.36118,0.98214 -16.84304,50.32143 -36.62636,109.64285 l -35.96967,107.85715 -8.75884,6.42857 c -10.87526,7.98191 -12.57982,9.0078 -12.57982,7.57104 z"
           style="fill:#666666" />
        <path
           inkscape:connector-curvature="0"
           id="path3618"
           d="m 237.06262,955.39491 c 0.36212,-0.98214 17.94576,-53.69642 39.07476,-117.14285 l 38.41637,-115.35715 8.22094,0 c 4.52152,0 8.22094,0.47745 8.22094,1.061 0,0.58355 -16.23214,49.80065 -36.07143,109.37134 l -36.07142,108.31034 -10.31199,7.77152 c -10.64376,8.02156 -12.60604,9.04488 -11.47817,5.9858 l 0,0 z"
           style="fill:#666666" />
        <path
           inkscape:connector-curvature="0"
           id="path3620"
           d="M 50.117853,676.29049 C 50.589974,674.81577 68.228566,621.8592 89.314725,558.6092 l 38.338465,-115 8.71924,-0.42285 8.71923,-0.42285 -36.46611,109.388 -36.46612,109.388 -11.449988,8.71613 c -7.457987,5.67728 -11.150711,7.78131 -10.591589,6.03486 l 0,0 z"
           style="fill:#666666" />
        <path
           inkscape:connector-curvature="0"
           id="path3622"
           d="m -42.937376,955.39491 c 0.362112,-0.98214 17.945753,-53.69642 39.0747592,-117.14285 l 38.4163718,-115.35715 8.22094,0 c 4.521515,0 8.220938,0.47745 8.220938,1.061 0,0.58355 -16.232143,49.80065 -36.071428,109.37134 l -36.071429,108.31034 -10.311986,7.77152 c -10.64376,8.02156 -12.606035,9.04488 -11.478166,5.9858 l 0,0 z"
           style="fill:#666666" />
        <path
           inkscape:connector-curvature="0"
           id="path3624"
           d="M -49.792421,1000.0668 -97.009046,999.32349 2.0408675,701.1162 101.09078,402.9089 l 140.19055,-0.36413 140.19056,-0.36414 33.05213,-99.28572 33.05214,-99.28571 24.0731,-18.23187 c 13.24022,-10.02753 24.283,-18.02197 24.53956,-17.76543 0.25654,0.25655 -17.14892,53.30377 -38.67879,117.88273 l -39.14524,117.41628 121.55253,-0.36514 121.55251,-0.36514 39.7629,-119.27929 c 21.8696,-65.6036 39.7629,-119.76431 39.7629,-120.35714 0,-0.59282 -53.67857,-1.07786 -119.28571,-1.07786 -65.60714,0 -119.28572,-0.45627 -119.28572,-1.01393 0,-0.55766 2.71365,-9.23623 6.03033,-19.28571 l 6.03033,-18.27179 278.25539,0 c 153.04046,0 278.25535,0.48339 278.25535,1.07419 0,0.5908 -41.6778,126.10866 -92.61741,278.92857 l -92.61743,277.85439 -18.70884,0.3979 -18.70884,0.39788 39.8977,-119.67404 c 21.94374,-65.82072 39.89771,-119.83906 39.89771,-120.04074 0,-0.2017 -54.5893,-0.36672 -121.30954,-0.36672 l -121.30954,0 -39.61518,118.92857 c -21.78834,65.41072 -39.90927,119.72845 -40.26871,120.70605 -0.51723,1.40675 24.15826,1.85368 118.3092,2.14285 l 118.96273,0.36539 -25.20927,18.91891 -25.20926,18.91892 -100.27329,0.3668 -100.27327,0.3668 -46.53933,139.64286 -46.53933,139.64281 -250.71974,-0.3281 c -137.89587,-0.1805 -271.967237,-0.6626 -297.936381,-1.0714 z M 234.81206,842.17263 275.04652,721.45034 153.49826,721.81549 31.950006,722.18063 -7.8128939,841.45991 c -21.8695961,65.6036 -39.7629011,119.76432 -39.7629011,120.35715 0,0.59281 54.4845125,1.07785 121.0767,1.07785 l 121.076685,0 40.23447,-120.72228 z m 276.07947,12.508 c 19.65173,-59.51786 37.63925,-113.84289 39.97225,-120.72229 l 4.24181,-12.50801 -121.57779,0.36516 -121.5778,0.36514 -39.7629,119.27928 c -21.8696,65.6036 -39.7629,119.76432 -39.7629,120.35715 0,0.59281 54.6158,1.07785 121.36846,1.07785 l 121.36846,0 35.73041,-108.21428 0,0 z M 327.5156,563.96634 c 21.78835,-65.41071 39.91069,-119.73214 40.27188,-120.71428 0.5221,-1.41972 -24.23793,-1.78572 -120.80569,-1.78572 l -121.46239,0 -39.615167,118.92857 C 64.11589,625.80563 45.993548,680.12706 45.632362,681.1092 c -0.5221,1.41971 24.237928,1.78571 120.805688,1.78571 l 121.46238,0 39.61517,-118.92857 z m 280,0 c 21.78835,-65.41071 39.91069,-119.73214 40.27188,-120.71428 0.5221,-1.41972 -24.23793,-1.78572 -120.80569,-1.78572 l -121.46239,0 -39.61517,118.92857 c -21.78834,65.41072 -39.91068,119.73215 -40.27187,120.71429 -0.5221,1.41971 24.23793,1.78571 120.80569,1.78571 l 121.46238,0 39.61517,-118.92857 0,0 z m 373.71713,-281.065 c 21.86957,-65.6036 39.76287,-119.76431 39.76287,-120.35714 0,-0.59282 -54.48448,-1.07786 -121.07667,-1.07786 l -121.07668,0 -40.23447,120.72229 -40.23446,120.72228 121.54826,-0.36514 121.54825,-0.36514 39.7629,-119.27929 0,0 z"
           style="fill:#cccccc" />
      </g>
      <text
         xml:space="preserve"
         style="font-size:48px;font-style:normal;font-weight:normal;line-height:125%;letter-spacing:0px;word-spacing:0px;fill:#000000;fill-opacity:1;stroke:none;font-family:Sans"
         x="336.42172"
         y="362.0575"
         id="text3048"
         sodipodi:linespacing="125%"
         transform="matrix(1,0,-0.32508521,1,0,0)"><tspan
           sodipodi:role="line"
           id="tspan3050"
           x="336.42172"
           y="362.0575">SUB</tspan><tspan
           sodipodi:role="line"
           x="336.42172"
           y="422.0575"
           id="tspan3052">STR</tspan></text>
    </g>
  </g>
</svg>
